<?xml version="1.0" encoding="UTF-8"?>
<svg id="Layer_6" xmlns="http://www.w3.org/2000/svg" version="1.1" viewBox="0 0 600 600">
  <!-- Generator: Adobe Illustrator 29.4.0, SVG Export Plug-In . SVG Version: 2.1.0 Build 152)  -->
  <path d="M377.76,166.87c.54.43-.3.53-1.96.58-14.46-.55-22.35,8.72-15.01,22.87,1.8,3.19,3.21,3.26,6.76,5.3,15.71,8.41,60.2,33.25,83.15,51.14,14.39,8.53,26.09,47.24,26.9,72.93.94,9.89.62,23.42.93,33.8,1,10.13,4.18,41.16-14.62,63.73-7.34,8.57-14.7,12.86-23.7,19.3-11.71,8.24-24.59,17.35-36.36,25.64-6.6,4.65-5.44,4.44-11.17.67-18.34-12.07-48-32.05-65.74-43.76-2.05-1.37-3.25-2.09-2.33-3.37,1.82-2.97,10.76-5.73,10.76-10.79-.05-11.27-.8-56.45-1.07-79.07,0-5.58-.52-7.85,1.18-12.98,1.07-3.84,2.1-8.41,1.9-12.53-.14-6-3.92-10.45-2.73-12.1,1.72-1.94,7.9-.72,11.29-.84,7,.12,16.83.87,23.2.62,5.48.74,15.55-12.24,17.43-1.88.65,4.25-1.66,6.38-1.76,10.18.39,15.87,1.96,87.47,2.3,97.62,1.06,4.65,6.2,6.4,10.55,10.63,6.34,3.78,22.98,24.19,27.54,11.9-.08-13.18-1.67-70.88-2.17-93.57-.07-5.6-.15-8.95-1.44-14.8-.99-3.97-1.18-9.18-4.66-11.56-10.02-6.83-58.55-39.51-66.7-45.02-5.14-3.29-7.88-5.07-12.14-11.47-8.41-13.7-11.99-36.64-6.7-51.85,6.13-11.78,24.53-31.29,46.18-21.42l.2.13Z"/>
  <path d="M292.17,228.91c-2.56-1.41-3.68-1.25-7.01-1.75-10.29-1.39-23.7-2.82-33.95-2.55-3.86-.06-8.14.17-10.39-3.05-1.48-2.19-2.64-5.44-2.42-7.91,4.47-9.24,29.24-56.48,38.15-73.88,1.93-3.44,2.01-4.14.13-6.95-3.29-4.31-9.71-2.6-13.38.4-1.96,1.24-2.68,2.53-4.18,2.72-16.6-14.59-50.37-29.06-79.94-14.52-19.95,8.01-44.17,35.81-48.89,66.42-1.46,7.46-8.41,44.24,9.13,64.83,4.28,4.84,9.68,8.36,15.14,10.31,6.06,2.01,31.15,9.73,45.14,9.32,7.7-.91,5.7,6.72,5.65,12.86-.12,3-.32,5.49-4.45,5.32-7.91-.06-21.95-.29-29.33-.35-15.09.53-38.91-13.23-48.71-36.75-.72-1.27-1.12-2.82-1.9-3.56-.7,2.19,0,6.15-.25,11.81.02,17.78-.03,48.27.02,51.76.04.86.21,1.11.76,1.83,8.14,11.5,29.44,26.46,49.85,25.45,2.45.04,4.69-.03,5.78.99.86.74.98,2.12,1,4.2.09,5.43.17,11.81.26,17.35.5,6.68-1.43,7.21-5.19,11-4.3,4.1-9.27,3.97-11.32-2.44-2.37-5.24,0-11.72-4.11-15.15-5.95-4.4-17.38-3.72-22.89,2.89-6.04,8.07-5.14,22.7-2.35,31.92,1.16,6.17,6.9,16.81,15.83,18,5.8,1.26,14.31,2.33,24.45-5.21,6.39-4.63,10.69-12.52,13.39-19.13,3.98-6.45,8.49-20.35,7.09-30.93-.13-3.14-.03-4.76,1.36-5.21,1.63-.3,5.32-.1,10.14-.21,13.7-.1,29.11-.2,42.93-.3,4.12.05,3.53-.26,5.6.22,6.83,2.77,8.14,12.25,8.87,18.8.45,4.47-.71,14.49,6.75,11.31,6.06-2.93,7.95-7.6,9.37-14.37,2.54-10.11,2.96-25.12,2.86-30.12.92-13.77-.82-36.95-14.71-42.95-11.36-5.18-35.14-6.45-40.41-6.25-1.76-.17-.75-1.41.17-3.46,2.88-6.47,6.99-7.39,13.63-7.03,4.01,0,9.22.39,13.56.99,13.15,1.75,21.83,5.46,24.37,6.65,30.33,14.59,15.14,77.85,12.46,84.28-6.12,13.55-20.86,42.75-24.93,51.39-.94,2.58-4.5.16-6.57-.8-10.28-6.53-51.58-19.13-82.69-3.77-1.58.74-3.31,1.5-4.36,2.96-5.23,7.01-34.35,46.15-45.95,61.72-1,1.36-1.86,2.49-2.77,3.72-2.31,3.12-2.47,3.24-1.59,2.38,21.92-21.57,72.07-44.99,120.08-1.81,4.47,2.76,11.35-3.45,12.7-7.98,4.01-9.61,42.13-96.63,59.84-137.11,3.61-8.6,5.93-12.87,8.21-19.17,2.24-6.24,7.89-68.7-29.64-88.97l-.39-.22ZM230.14,193.35c-1.75,9.51-5.36,21.71-15.78,21.09-11.16.32-21.36.25-32.22.38-4.85.1-9.07-.27-12.89-2.76-12.09-7.76-14.91-24.54-11.97-37.84,5.2-25.51,38.64-42.39,55.74-18.49,8.63,9.78,19.95,23.2,17.2,37.1l-.08.51Z"/>
</svg>