<?xml version="1.0" encoding="UTF-8"?>
<svg xmlns="http://www.w3.org/2000/svg" version="1.1" viewBox="0 0 2000 1000">
  <!-- Generator: Adobe Illustrator 29.5.1, SVG Export Plug-In . SVG Version: 2.1.0 Build 141)  -->
  <defs>
    <style>
      .st0 {
        stroke-width: .25px;
      }

      .st0, .st1, .st2, .st3 {
        stroke: #000;
        stroke-miterlimit: 10;
      }

      .st1 {
        fill: none;
      }

      .st1, .st3 {
        stroke-width: .75px;
      }

      .st2 {
        stroke-width: 2px;
      }
    </style>
  </defs>
  <g id="Vrstva_3">
    <path class="st1" d="M842.36,404.4"/>
  </g>
  <g id="Vrstva_8">
    <path class="st0" d="M1490.31,394.99c-1.26-2.96-2.64-4.84-4.41-6.29-4.21-3.43-9.16-3.23-10.27-3.16-1.18.08-4.94.38-8.24,3.16-2.09,1.76-3.18,3.83-3.95,5.68-2.16,5.19-2.56,10.58-2.29,20.37.36,13.33,1.5,17.97,3.63,21.85,1.93,3.51,3.89,4.98,5.49,5.74,2.25,1.08,4.45,1.1,6.51,1.12,1.79.02,4.24.04,6.96-1.12,3.3-1.4,5.15-3.74,5.85-4.63,2.95-3.73,2.87-7.63,2.94-23.88.04-9.01.09-13.44-2.22-18.86ZM1484.56,423.84c-2.44,3.09-6.68,3.08-7.38,3.07-1.01,0-4.19-.02-6.37-2.29-1.68-1.76-1.82-4.15-2.03-8.86-.27-5.97-.4-8.95,1.63-11.15,2.19-2.37,5.47-2.49,6.45-2.52.91-.03,4.48-.16,6.9,2.29,1.94,1.97,2.01,4.73,2.15,10.23.12,4.87.18,7.31-1.34,9.23Z"/>
    <path d="M493.65,395.13c-2.56-1.41-3.68-1.25-7.01-1.75-10.29-1.39-23.7-2.82-33.95-2.55-3.86-.06-8.14.17-10.39-3.05-1.48-2.19-2.64-5.44-2.42-7.91,4.47-9.24,29.24-56.48,38.15-73.88,1.93-3.44,2.01-4.14.13-6.95-3.29-4.31-9.71-2.6-13.38.4-1.96,1.24-2.68,2.53-4.18,2.72-16.6-14.59-50.37-29.06-79.94-14.52-19.95,8.01-44.17,35.81-48.89,66.42-1.46,7.46-8.41,44.24,9.13,64.83,4.28,4.84,9.68,8.36,15.14,10.31,6.06,2.01,31.15,9.73,45.14,9.32,7.7-.91,5.7,6.72,5.65,12.86-.12,3-.32,5.49-4.45,5.32-7.91-.06-21.95-.29-29.33-.35-15.09.53-38.91-13.23-48.71-36.75-.72-1.27-1.12-2.82-1.9-3.56-.7,2.19,0,6.15-.25,11.81.02,17.78-.03,48.27.02,51.76.04.86.21,1.11.76,1.83,8.14,11.5,29.44,26.46,49.85,25.45,2.45.04,4.69-.03,5.78.99.86.74.98,2.12,1,4.2.09,5.43.17,11.81.26,17.35.5,6.68-1.43,7.21-5.19,11-4.3,4.1-9.27,3.97-11.32-2.44-2.37-5.24,0-11.72-4.11-15.15-5.95-4.4-17.38-3.72-22.89,2.89-6.04,8.07-5.14,22.7-2.35,31.92,1.16,6.17,6.9,16.81,15.83,18,5.8,1.26,14.31,2.33,24.45-5.21,6.39-4.63,10.69-12.52,13.39-19.13,3.98-6.45,8.49-20.35,7.09-30.93-.13-3.14-.03-4.76,1.36-5.21,1.63-.3,5.32-.1,10.14-.21,13.7-.1,29.11-.2,42.93-.3,4.12.05,3.53-.26,5.6.22,6.83,2.77,8.14,12.25,8.87,18.8.45,4.47-.71,14.49,6.75,11.31,6.06-2.93,7.95-7.6,9.37-14.37,2.54-10.11,2.96-25.12,2.86-30.12.92-13.77-.82-36.95-14.71-42.95-11.36-5.18-35.14-6.45-40.41-6.25-1.76-.17-.75-1.41.17-3.46,2.88-6.47,6.99-7.39,13.63-7.03,4.01,0,9.22.39,13.56.99,13.15,1.75,21.83,5.46,24.37,6.65,30.33,14.59,15.14,77.85,12.46,84.28-6.12,13.55-20.86,42.75-24.93,51.39-.94,2.58-4.5.16-6.57-.8-10.28-6.53-51.58-19.13-82.69-3.77-1.58.74-3.31,1.5-4.36,2.96-5.23,7.01-34.35,46.15-45.95,61.72-1,1.36-1.86,2.49-2.77,3.72-2.31,3.12-2.47,3.24-1.59,2.38,21.92-21.57,72.07-44.99,120.08-1.81,4.47,2.76,11.35-3.45,12.7-7.98,4.01-9.61,42.13-96.63,59.84-137.11,3.61-8.6,5.93-12.87,8.21-19.17,2.24-6.24,7.89-68.7-29.64-88.97l-.39-.22v.06ZM431.62,359.57c-1.75,9.51-5.36,21.71-15.78,21.09-11.16.32-21.36.25-32.22.38-4.85.1-9.07-.27-12.89-2.76-12.09-7.76-14.91-24.54-11.97-37.84,5.2-25.51,38.64-42.39,55.74-18.49,8.63,9.78,19.95,23.2,17.2,37.1l-.08.51h0Z"/>
  </g>
  <g id="Vrstva_9">
    <g>
      <path class="st3" d="M608.74,595.13c-9.37,1.48-19.07,3.32-27.57-1.53-12.88-7.36-15.67-21.43-16.09-23.74l-.77-12.26c17.87-15.32,35.74-30.64,53.62-45.96v-11.64l-22.98-56.53c-7.69,3.31-18.47,8.47-30.64,16.09-12.72,7.96-19.95,12.58-26.04,20.68-5.72,7.61-8.59,15.87-11.49,35.23-4.65,30.98-6.97,46.47-3.8,62.04,6.81,33.43,29.8,55.01,41.33,64.34l6.46,4.6c.56-.59,51.89-54.49,51.9-54.5.19-.2.62-.65.62-.65-3.4,1.27-8.38,2.86-14.55,3.83ZM564.32,477.94l21.45,49.79-21.45,17.23v-67.02Z"/>
      <path class="st3" d="M706.79,598.19c-8.3.47-16.6.95-24.89,1.42-1.9-97.2-1.91-168.4-1.07-185.17.28-5.55,1.26-17.14,8.34-23.06,1.09-.92,5.07-4,10.72-6.89,2.78-1.42,5.18-2.41,6.89-3.06-21.69-7.39-43.71-2.66-55.15,11.49-6.54,8.09-8.08,17.35-8.43,22.98-4.6-8.17-9.19-16.34-13.79-24.51-.74,3.28-1.52,8.48-.61,14.63,1.17,7.89,4.26,11.51,7.5,21.37,1.19,3.61,2.73,9.07,3.71,16.09-.72,52.36-1.45,104.71-2.17,157.07l-8.44,2.25c10.48,13.27,20.95,26.54,31.43,39.81,15.31-14.8,30.62-29.6,45.93-44.41Z"/>
      <path class="st3" d="M823.47,544.96c-2.36-11.25-9.91-34.21-21.45-34.68-3.95-.16-7.25,2.35-9.19,4.17-2.66,14.29-13.55,24.31-24.6,24.51-14.66.27-23.29-16.84-25.44-27.51-2.16-10.74,1.29-19.69,3.06-23.55,1.27,2.92,7.56,16.62,21.96,22.39,11.23,4.5,22.12,2.05,23.46,1.57.5-.18,1-.38,1.04-.4,0,0,0,0,0,0,1.69-1.2,3.99-2.96,6.51-5.31,11.51-10.71,16.08-22.91,18-28.2,2.83-7.81,10.46-28.9,1.02-51.83-1.98-4.82-13.1-31.82-39.32-35.74-19.64-2.94-34.41,9.08-36.26,10.64-11.9,10-15.5,23.36-16.34,31.09-.53,4.86,2.55,15.98,2.55,15.98,0,0,5.91-31.54,23.49-41.87,11.83-6.95,29.99-4.91,41.87,5.11,12.44,10.48,19.84,31.26,10.72,43.15-4.89,6.38-14.84,10.59-24.51,7.91-11.67-3.23-15.93-14.66-16.34-15.83-2.38,3.4-4.77,6.81-7.15,10.21-4.45,6.07-10.82,14.84-18.38,25.53-9.75,13.78-14.67,20.76-16.85,25.02-4.72,9.22-9.84,25.05-5.62,50.04,6.28,7.64,9.19,11.23,9.19,11.23,6.54,8.07,9.82,12.13,10.21,13.28,1.62,4.76.52,9.69-5.11,21.45-3.73,7.79-9.3,18.26-17.36,30.13,1.53,3.06,3.06,6.11,4.6,9.17.14-.17.36-.42.63-.72,8.65-9.38,25.62-8.06,35.11-5.38,11.14,3.14,18.5,9.98,22.34,14.3l48.13-74.55c2.72-13.83,1.38-24.7,0-31.28ZM793.34,608.91c-3.13-3.48-7.16-7.25-12.26-10.72-15.44-10.54-31.5-12.1-39.83-12.26,2.62-5.56,8.54-17.77,14.81-27.57.85-1.32,2.34-3.61,5.11-5.62,4.45-3.24,10.4-4.46,14.81-3.57,11.82,2.36,16.38,20.57,17.36,24.51,4.18,16.69,0,35.23,0,35.23Z"/>
      <path class="st3" d="M948.06,605.85c.1-3.25.11-6.57,0-9.96-1-31.56-11.39-58.31-22.98-78.89l21.45-26.04c.61-3.66.85-8.11,0-13.02-3.22-18.57-19.43-28.56-22.98-30.64l-38.3,39.83-1.53-67.4c.58-14.5,6.93-21.47,8.74-23.3,6.06-6.11,17.33-11.03,21.13-12.7h0c-5.99-1.4-14.76-2.51-24.8-.38-27.45,5.81-40.54,30.76-42.61,34.85l-15.32-20.68c3.06,9.96,6.13,19.91,9.19,29.87l1.08,177.94c-3.43,2.99-6.85,5.97-10.28,8.96,10.47,12.17,20.94,24.34,31.4,36.51,10.98-12.43,21.96-24.85,32.94-37.28l-9.96-4.6-1.53-60.02c2.79-2.95,5.34-4.26,7.66-3.93,9.57,1.36,15.18,30.59,16.85,87.7l16.85,18.13,36.77-41.87-13.79-3.06ZM882.96,544.96v-44.96l13.4-12.11,16.47,28.58-29.87,28.49Z"/>
      <g>
        <path class="st3" d="M1034.87,484.06c1.07,16.04,2.1,36.19,2.55,59.49.11,5.73.06,4.88,0,48.51-.05,41.07-.02,52.54-3.83,69.96-3.71,16.95-8,25.55-9.45,28.34-11.54,22.23-29.23,31.31-28.09,32.94,1.28,1.83,24.87-7.35,44.43-28.34,16.2-17.39,22.99-35.75,26.55-45.7,7.76-21.65,8.84-39.66,9.45-53.11,2.55-56.39-.31-122.33-1.02-126.64-1.76-10.68-8.52-18.86-15.32-24.77"/>
        <path class="st3" d="M1017.77,482.79c14.13-12.68,28.26-25.36,42.38-38.04-14.13,12.68-28.26,25.36-42.38,38.04Z"/>
        <path class="st3" d="M1017.77,482.79c.52-3.11,1.82-12.66-2.04-21.96-3.66-8.81-9.96-13.53-9.96-13.53-.03-.02.04.03,0,0-12.25-9.19-20.62-15.46-20.51-22.47.06-4.19,3.15-9.08,7.23-9.7,3.75-.57,6.91,2.68,7.51,3.32.62-1.63,1.92-5.67,0-8.68-3.56-5.59-14.95-2.59-16.02-2.3-9.51,2.62-14.76,10.54-16.85,13.79-10.53,16.38-6.15,35.35-5.05,40.1,3.27,14.16,10.9,23.86,15.66,28.94l1.02,105.53-12.26,8.51,31.32,42.55,34.38-44.94-13.41.07-.43-104c5.5-4.65,11.01-9.3,16.51-13.96,8.43-13.11,16.85-26.21,25.28-39.32"/>
      </g>
      <path class="st3" d="M1040.47,371.79s-24.17,7.15-12.94,27.23c0,0,5.45,8.43,4.98,19.66l7.96,5.62,8.17-15.06v-29.62l-8.17-7.83Z"/>
      <path class="st2" d="M1199.53,373.23s-59.23,9.96-36,68.68c0,0,7.91,15.11,20.43,21.85,0,0,32.68,13.64,36.26,24.62,0,0,2.55,16.09,3.32,111.83,0,0-.22,4.45-5.49-2.83l-15.49-15.43-.26-99.17s1.02-6.06-2.21-8.79c0,0-5.87,12.34-13.79,12.34-7.52.04-15.04.09-22.55.13l-.21,100.43-11.23,14.66s38.17,15.97,52.09,42.14c0,0,12.13-23.62,38.04-34.47,0,0,15.45-2.55,16.85-37.53v-87.83s2.77-38.44-47.11-61.91c-4.98-2.22-9.97-4.64-14.95-7.28-.27-.14-.54-.28-.8-.43-12.96-6.84-17.82-20.79-13.34-30.16,4.2-8.79,15.21-10.66,16.46-10.86Z"/>
      <path class="st2" d="M1371.74,443.45c-10.79,11.91-21.58,23.82-32.37,35.74.62-.09,9.34-1.22,13.93,4.69,1.35,1.75,1.96,3.61,2.25,5.08v118.6l-2.3-2.68-18-22.98-1.38-121.41c-1.09-3.86-2.89-7.91-5.88-11.61-9.26-11.45-23.07-11.07-24.04-17.22-.54-3.46,3-8.95,21.32-17.76-3.96-.42-18.95-1.53-31.53,8.61-14.69,11.85-16.67,31.72-13.22,46.33,3.6,15.3,15.01,23.37,15.01,23.37v94.21c0,7.91-11.11,14.3-11.11,14.3,20.43,3.45,48.38,46.47,48.38,46.47,11.49-20.68,36-30.89,36-30.89,25.53-11.49,26.55-31.15,26.55-31.15v-94.47c-2.94-51.19-23.62-47.23-23.62-47.23Z"/>
      <path class="st2" d="M1443.94,445.3l-35.06,43.57s15.87-8.98,16.13,3.28v106.81s-1.79,7.49-12.09,9.7l31.02,38.53,43.23-43.47s-3.83,29.83,20.85,43.47l35.4-42.19h-17.53v-112s1.02-9.87,12.09-11.23c0,0-23.83-3.91-29.45-34.55,0,0-9.36,30.81-28.6,32.68,0,0,5.11,2.55,5.45,15.66.27,32.38.55,64.76.82,97.15-4.53,4.44-9.06,8.88-13.59,13.32l-5.62-4.94v-126.47l-23.06-29.32Z"/>
      <path class="st2" d="M1609.6,500v91.51c.39,1.12,4.13,11.51,12.37,13.39,9.06,2.06,21.61-6.63,24.35-22.53.17,5.73-.4,12.52-2.72,19.74-9.14,28.41-37.77,39.99-43.36,42.13-14.98-13.7-29.96-27.4-44.94-41.11,0,0,17.11-5.62,16.09-25.02v-79.15c-3.33-3.91-6.67-7.83-10-11.74.07-4.91.14-9.81.21-14.72,7.77-9.13,15.55-18.26,23.32-27.39,4.06,2.13,10.42,6.13,16.14,13.15,7.77,9.53,10.14,19.42,10.96,24.28,1.3-2.8,7.29-14.9,20.91-19.53,5.71-1.94,10.85-1.92,14.28-1.58,5.02,11.4,10.04,22.81,15.06,34.21,0,0-1.53,14.81-25.02,38.04-12.84-29.08-21.22-43.04-25.13-41.88-1.52.45-2.36,3.18-2.53,8.2Z"/>
    </g>
  </g>
</svg>